<?xml version="1.0" encoding="utf-8"?>
<!-- Generator: Adobe Illustrator 22.1.0, SVG Export Plug-In . SVG Version: 6.00 Build 0)  -->
<svg version="1.1" id="Layer_1" xmlns="http://www.w3.org/2000/svg" xmlns:xlink="http://www.w3.org/1999/xlink" x="0px" y="0px"
	 width="120px" height="98px" viewBox="0 0 120 98" style="enable-background:new 0 0 120 98;" xml:space="preserve">
<style type="text/css">
	.st0{fill:#FFFFFF;}
</style>
<title>SH logo</title>
<desc>Created with Sketch.</desc>
<g id="Group-42" transform="translate(0.000000, 5.000000)">
	<path id="Fill-1" class="st0" d="M20.6,77.9c0-3.2-1.6-5.2-4.4-4.9c-2.8,0.2-4.4,2.4-4.4,5.7c0,3.4,1.6,5.2,4.4,4.9
		C18.9,83.4,20.6,81.2,20.6,77.9L20.6,77.9z M23.4,62.1v23l-3,0.3v-5h-0.1c0,3.3-2,5.4-5.5,5.7c-3.9,0.3-6.2-2.3-6.2-7.2
		s2.3-8,6.2-8.3c3.4-0.3,5.5,1.5,5.5,4.8h0.1V62.3L23.4,62.1z"/>
	<path id="Fill-3" class="st0" d="M29.9,76.3l8.3-0.7c-0.2-2.9-1.7-4.4-4.1-4.2C31.7,71.5,30.1,73.3,29.9,76.3L29.9,76.3z
		 M41.2,76.6l-11.3,1c0.1,3.1,1.7,4.9,4.2,4.6c2.2-0.2,3.7-1.5,4.1-3.6l3-0.3c-0.5,3.5-3.1,5.8-7.1,6.2c-4.5,0.4-7.1-2.3-7.1-7.1
		c0-4.9,2.6-8,7.1-8.4s7.1,2.3,7.1,7.1V76.6z"/>
	<path id="Fill-5" class="st0" d="M43.6,78.6l2.9-0.2c0,1.9,1.4,3,3.7,2.8s3.6-1.2,3.6-2.7c0-1.9-2-2-4.2-2.2
		C47,76.1,44,75.9,44,72.6c0-2.7,2.3-4.6,6.1-4.9s6.1,1.3,6.1,4.4l-2.9,0.2c0-1.9-1.2-2.9-3.2-2.7c-2,0.2-3.2,1.1-3.2,2.4
		c0,1.6,1.8,1.7,3.9,1.9c2.7,0.2,5.9,0.5,5.9,4c0,2.9-2.4,4.9-6.5,5.2C46.1,83.5,43.6,81.8,43.6,78.6"/>
	<path id="Fill-7" class="st0" d="M60.1,64.8l0.1-4.3l3.2-0.3v0.1C63.5,62.6,62.3,64.3,60.1,64.8L60.1,64.8z M60.1,67l3-0.3v14.9
		l-3,0.3V67z"/>
	<path id="Fill-9" class="st0" d="M78.7,72.8c0-3.2-1.6-5.1-4.4-4.9s-4.4,2.4-4.4,5.7c0,3.3,1.6,5.1,4.4,4.9
		C77.1,78.2,78.7,76,78.7,72.8L78.7,72.8z M81.5,65.2v15.2c0,4.3-2.7,7.1-7.3,7.5c-4,0.4-6.7-1.5-7.1-4.8l2.9-0.6
		c0.2,2.1,1.8,3.3,4.2,3c2.7-0.2,4.3-2,4.3-4.7v-5.6h-0.1c0,3.3-2,5.4-5.5,5.7c-3.9,0.3-6.2-2.3-6.2-7.2c0-4.8,2.3-7.9,6.2-8.2
		c3.4-0.3,5.5,1.5,5.5,4.8h0.1v-5L81.5,65.2z"/>
	<path id="Fill-11" class="st0" d="M99.4,69.3v9.2l-3,0.3v-9.1c0-2.3-1.3-3.6-3.5-3.4c-2.5,0.2-4,2.1-4,5v8.1l-3,0.3V64.8l3-0.3v5.2
		H89c0-3.4,1.9-5.6,5-5.9C97.4,63.5,99.4,65.6,99.4,69.3"/>
	<path id="Fill-13" class="st0" d="M8.3,27.6l4.9-0.4c0,1.5,1,2.2,2.8,2.1c1.7-0.1,2.6-0.9,2.6-2c0-1.4-1.7-1.5-3.6-1.6
		c-2.8-0.2-6.3-0.4-6.3-4.3c0-3.2,2.7-5.3,7.3-5.7c4.6-0.4,7.3,1.3,7.3,4.7l-4.9,0.4c0-1.4-0.9-2.1-2.4-2c-1.4,0.1-2.2,0.8-2.2,1.7
		c0,1.1,1.6,1.3,3.5,1.4c2.8,0.2,6.5,0.5,6.5,4.3c0,3.5-2.9,5.9-7.7,6.3C11.2,32.9,8.3,31.1,8.3,27.6"/>
	<path id="Fill-15" class="st0" d="M37.9,22.2c0-2.4-1.3-4.1-3.3-3.9c-2.1,0.2-3.4,1.9-3.4,4.5c0,2.7,1.3,4.1,3.4,3.9
		S37.9,24.6,37.9,22.2L37.9,22.2z M43,13.7v16.2l-5.3,0.5v-5.7h-0.1c0,3.8-2.1,6.2-5.7,6.5c-3.9,0.3-6.2-2.6-6.2-7.9
		s2.3-8.6,6.2-8.9c3.6-0.3,5.7,1.7,5.7,5.5h0.1v-5.7L43,13.7z"/>
	<polygon id="Fill-17" class="st0" points="46.7,5 52,4.5 52,29.1 46.7,29.5 	"/>
	<path id="Fill-19" class="st0" d="M62,15.6v6.7c0,1.3,0.9,2,2.3,1.8c0.8-0.1,1.5-0.3,2.1-0.7v3.9c-1.1,0.6-2.5,1-3.8,1.1
		c-3.7,0.3-6-1.5-6-4.9V16l-2.1,0.2v-3.6l2.4-0.2V7.2l5.3-0.5V8c0,2.2-1.9,3.7-5.2,4.3v0.1l9.6-0.8v3.6L62,15.6z"/>
	<path id="Fill-21" class="st0" d="M73.3,18.2l6.2-0.5c-0.3-2.2-1.3-3.4-3.1-3.2C74.7,14.5,73.6,15.9,73.3,18.2L73.3,18.2z
		 M84.7,18.7l-11.4,1c0.1,2.4,1.3,3.8,3.2,3.6c1.6-0.1,2.7-1.1,3.1-2.5l5.1-0.4c-0.6,3.9-3.7,6.5-8.2,6.9c-5.3,0.5-8.3-2.4-8.3-7.7
		s3.1-8.6,8.3-9.1c5.2-0.4,8.2,2.4,8.2,7.7C84.7,18.2,84.7,18.7,84.7,18.7z"/>
	<path id="Fill-23" class="st0" d="M98.9,16.9c0-2.4-1.3-4.1-3.3-3.9c-2.1,0.2-3.4,1.9-3.4,4.5c0,2.7,1.3,4.1,3.4,3.9
		C97.7,21.2,98.9,19.3,98.9,16.9L98.9,16.9z M104,0v24.5L98.7,25v-5.7h-0.1c0,3.8-2.1,6.2-5.7,6.5c-3.9,0.3-6.2-2.6-6.2-7.9
		S89,9.3,92.9,9c3.6-0.3,5.7,1.7,5.7,5.5h0.1v-14L104,0z"/>
	<path id="Fill-25" class="st0" d="M24.7,49.3V59l-5.3,0.5V50c0-1.8-1-2.8-2.6-2.6c-1.8,0.2-2.9,1.6-2.9,3.9V60l-5.3,0.5V35.8
		l5.3-0.5v14.1H14c0-3.8,1.9-6.3,5.1-6.5C22.6,42.7,24.7,45,24.7,49.3"/>
	<path id="Fill-27" class="st0" d="M32.6,49.2l6.2-0.5c-0.3-2.2-1.3-3.4-3.1-3.2C34,45.6,32.8,47,32.6,49.2L32.6,49.2z M44,49.8
		l-11.4,1c0.1,2.4,1.3,3.8,3.2,3.6c1.6-0.1,2.7-1.1,3.1-2.5l5.1-0.4c-0.6,3.9-3.7,6.5-8.2,6.9c-5.3,0.5-8.3-2.4-8.3-7.7
		s3.1-8.6,8.3-9.1C41,41.2,44,44,44,49.3C44,49.3,44,49.8,44,49.8z"/>
	<path id="Fill-29" class="st0" d="M59.3,40l-1.5,4.8c-0.6-0.3-1.4-0.5-2.2-0.4c-2.2,0.2-3.5,2.1-3.5,5.3v6.9l-5.3,0.5V40.9l5.3-0.5
		v7h0.1c0-4.6,1.7-7.5,4.7-7.7C57.7,39.6,58.7,39.8,59.3,40"/>
	<path id="Fill-31" class="st0" d="M73.5,38.8L72,43.6c-0.6-0.3-1.4-0.5-2.2-0.4c-2.2,0.2-3.5,2.1-3.5,5.3v6.9L61,55.8V39.7l5.3-0.5
		v7h0.1c0-4.6,1.7-7.5,4.7-7.7C72,38.4,72.9,38.5,73.5,38.8"/>
	<path id="Fill-33" class="st0" d="M75.3,36.4v-5.2l5.3-0.5V32c0,2.2-1.9,3.8-5.2,4.3L75.3,36.4z M75.2,38.4l5.3-0.5v16.2l-5.3,0.5
		V38.4z"/>
	<path id="Fill-35" class="st0" d="M100.3,42.7v9.7L95,52.9v-9.5c0-1.8-1-2.8-2.6-2.6c-1.8,0.2-2.9,1.6-2.9,3.9v8.7l-5.3,0.5V37.7
		l5.3-0.5V43h0.1c0-3.8,1.9-6.3,5.1-6.5C98.2,36.1,100.3,38.5,100.3,42.7"/>
	<path id="Fill-37" class="st0" d="M115.2,42.9c0-2.3-1.3-4-3.3-3.8c-2.1,0.2-3.4,1.8-3.4,4.4c0,2.6,1.3,4,3.4,3.8
		C114,47.1,115.2,45.3,115.2,42.9L115.2,42.9z M120.3,34.5v16.3c0,4.7-3.1,7.8-8.4,8.3c-4.4,0.4-7.5-1.4-8.3-4.9l5-1.3
		c0.3,1.4,1.5,2.2,3.3,2c1.9-0.2,3.1-1.4,3.1-3.4v-6.3h-0.1c0,3.8-2.1,6.2-5.7,6.5c-3.9,0.3-6.2-2.5-6.2-7.7s2.3-8.5,6.2-8.8
		c3.6-0.3,5.7,1.7,5.7,5.5h0.1V35L120.3,34.5z"/>
</g>
</svg>
