<svg xmlns="http://www.w3.org/2000/svg" xmlns:xlink="http://www.w3.org/1999/xlink" width="120" height="98" viewBox="0 0 120 98">
    <defs>
        <path id="a" d="M.426.404h17.211v26.98H.427z"/>
    </defs>
    <g fill="none" fill-rule="evenodd">
        <path fill="#000" d="M20.073 86.657c0-3.245-1.622-5.065-4.418-4.576-2.793.489-4.415 2.756-4.415 6.122 0 3.365 1.621 5.065 4.415 4.576 2.796-.49 4.418-2.877 4.418-6.122zm2.796-16.144V93.65l-3.006.526v-4.988l-.06.01c0 3.306-2.014 5.64-5.44 6.24-3.905.684-6.22-1.796-6.22-6.693 0-4.898 2.314-8.188 6.22-8.871 3.427-.6 5.44 1.03 5.44 4.336l.06-.01V71.038l3.006-.525zM29.39 84.185l8.233-1.44c-.239-2.874-1.712-4.299-4.086-3.883-2.404.42-3.907 2.366-4.147 5.323zm11.21-.7l-11.24 1.967c.12 3.134 1.683 4.724 4.177 4.287 2.193-.384 3.726-1.853 4.116-3.965l2.946-.516c-.512 3.605-3.126 6.136-7.062 6.825-4.478.784-7.093-1.644-7.093-6.542 0-4.897 2.615-8.24 7.093-9.023 4.447-.778 7.062 1.65 7.062 6.547v.42zM43.064 85.278l2.855-.5c0 1.954 1.353 2.889 3.666 2.484 2.284-.4 3.606-1.502 3.606-3.005 0-1.893-1.983-1.876-4.147-1.888-2.584.03-5.529.036-5.529-3.21 0-2.734 2.254-4.781 6.07-5.45 3.816-.667 6.07.772 6.07 3.897l-2.854.499c0-1.862-1.172-2.77-3.216-2.412-1.983.347-3.155 1.364-3.155 2.716 0 1.563 1.803 1.577 3.846 1.58 2.675.013 5.83.002 5.83 3.488 0 2.915-2.434 5.083-6.52 5.798-4.087.715-6.522-.752-6.522-3.997M59.43 70.08l.105-4.279 3.167-.58.049.13c.078 2.335-1.1 4.062-3.216 4.711l-.104.018zm.074 2.195l3.004-.526v14.964l-3.004.526V72.275zM77.984 76.463c0-3.215-1.622-5.005-4.417-4.516-2.795.49-4.417 2.757-4.417 6.062 0 3.336 1.622 5.005 4.417 4.516 2.795-.49 4.417-2.847 4.417-6.062zm2.795-7.91v15.264c0 4.327-2.674 7.38-7.242 8.178-4.026.705-6.67-.876-7.062-4.233l2.856-.89c.21 2.126 1.772 3.115 4.206 2.69 2.675-.469 4.237-2.335 4.237-5.039v-5.589l-.06.01c0 3.306-2.014 5.641-5.439 6.241-3.907.683-6.22-1.767-6.22-6.635 0-4.837 2.313-8.127 6.22-8.81 3.425-.6 5.44 1.031 5.44 4.337l.06-.01v-4.989l3.004-.526zM98.63 71.168v9.225l-3.005.526v-9.135c0-2.344-1.292-3.47-3.485-3.086-2.465.431-3.938 2.431-3.938 5.376v8.144l-3.005.525V67.78l3.005-.526v5.2l.06-.012c0-3.456 1.863-5.825 5.019-6.377 3.366-.589 5.349 1.318 5.349 5.104M8.267 37.073l4.926-.862c0 1.472 1.025 2.156 2.784 1.848 1.664-.29 2.623-1.099 2.623-2.186 0-1.376-1.663-1.34-3.615-1.287-2.815.077-6.302.143-6.302-3.76 0-3.199 2.72-5.594 7.294-6.394 4.575-.8 7.294.675 7.294 4.066l-4.926.862c0-1.376-.865-2.024-2.368-1.76-1.408.245-2.208.961-2.208 1.856 0 1.152 1.601 1.16 3.487 1.118 2.816-.045 6.43-.102 6.43 3.737 0 3.551-2.878 6.134-7.709 6.98-4.83.845-7.71-.699-7.71-4.218M37.796 29.027c0-2.399-1.249-4.036-3.328-3.672-2.11.37-3.358 2.187-3.358 4.842 0 2.687 1.248 4.036 3.358 3.667 2.08-.364 3.328-2.406 3.328-4.837zm5.086-8.983v16.218l-5.31.93v-5.727l-.064.011c0 3.775-2.079 6.41-5.63 7.032-3.87.677-6.206-2.049-6.206-7.359 0-5.279 2.335-8.822 6.206-9.499 3.551-.622 5.63 1.253 5.63 5.06l.064-.01v-5.727l5.31-.929zM46.531 10.992l5.31-.929v24.632l-5.31.93zM61.727 20.33v6.717c0 1.28.864 1.896 2.336 1.638a5.07 5.07 0 0 0 2.08-.875v3.903c-1.089.702-2.465 1.231-3.776 1.46-3.71.65-5.95-.974-5.95-4.429v-7.486l-2.112.37v-3.583l2.4-.42V12.38l5.311-.929v1.343c0 2.175-1.889 3.913-5.152 4.74v.064l9.565-1.674v3.583l-4.702.823zM73.052 21.898l6.175-1.08c-.255-2.195-1.312-3.29-3.038-2.988-1.76.309-2.911 1.79-3.136 4.069zm11.325-.445l-11.355 1.986c.127 2.442 1.278 3.68 3.166 3.349 1.567-.274 2.72-1.308 3.072-2.744l5.117-.896c-.608 3.977-3.678 6.817-8.188 7.607-5.247.918-8.318-1.68-8.318-6.99 0-5.31 3.07-8.95 8.318-9.869 5.15-.9 8.189 1.67 8.189 6.98v.576z"/>
        <g transform="translate(86 .596)">
            <mask id="b" fill="#fff">
                <use xlink:href="#a"/>
            </mask>
            <path fill="#000" d="M12.552 17.8c0-2.399-1.248-4.036-3.329-3.673-2.11.37-3.358 2.187-3.358 4.843 0 2.687 1.247 4.036 3.358 3.667 2.08-.364 3.329-2.406 3.329-4.837zM17.637.403v24.632l-5.31.93v-5.727l-.063.011c0 3.775-2.08 6.41-5.631 7.032-3.872.677-6.207-2.049-6.207-7.36 0-5.278 2.335-8.82 6.207-9.499 3.551-.62 5.63 1.254 5.63 5.061l.065-.01V1.332l5.31-.93z" mask="url(#b)"/>
        </g>
        <path fill="#000" d="M24.59 57.37v9.757l-5.31.93v-9.502c0-1.823-.958-2.71-2.558-2.432-1.792.314-2.848 1.874-2.848 4.178v8.701l-5.31.93V45.298l5.31-.929v14.203l.065-.01c0-3.839 1.887-6.44 5.055-6.995 3.518-.616 5.597 1.548 5.597 5.802M32.462 56.665l6.174-1.08c-.256-2.195-1.311-3.29-3.04-2.988-1.758.308-2.91 1.789-3.134 4.068zm11.325-.446L32.43 58.206c.129 2.44 1.28 3.679 3.167 3.348 1.568-.274 2.72-1.307 3.072-2.744l5.118-.896c-.608 3.977-3.68 6.818-8.19 7.607-5.246.918-8.317-1.68-8.317-6.99 0-5.31 3.07-8.95 8.317-9.868 5.15-.902 8.19 1.669 8.19 6.98v.576zM59.08 45.097l-1.536 4.94c-.607-.278-1.407-.33-2.143-.202-2.207.387-3.488 2.434-3.488 5.601v6.91l-5.309.93v-16.22l5.31-.929v7.038l.064-.012c0-4.638 1.728-7.659 4.64-8.169.894-.156 1.822-.127 2.462.113M73.254 42.617l-1.536 4.94c-.608-.278-1.408-.33-2.143-.2-2.208.385-3.488 2.432-3.488 5.6v6.91l-5.31.928V44.576l5.31-.929v7.038l.065-.01c0-4.64 1.727-7.66 4.638-8.17.896-.157 1.823-.128 2.464.112M75.024 40v-5.26l5.308-.932v1.363c0 2.207-1.886 3.967-5.148 4.8l-.16.028zm-.074 2.096l5.31-.929v16.22l-5.31.928V42.096zM99.935 44.186v9.757l-5.309.93V45.37c0-1.823-.96-2.71-2.56-2.43-1.79.312-2.848 1.873-2.848 4.176v8.701l-5.31.93V40.528l5.31-.93v5.791l.065-.012c0-3.838 1.888-6.44 5.055-6.994 3.52-.616 5.597 1.548 5.597 5.802M114.781 43.092c0-2.335-1.249-3.908-3.328-3.544-2.11.37-3.358 2.123-3.358 4.714 0 2.623 1.248 3.908 3.358 3.54 2.079-.365 3.328-2.343 3.328-4.71zm5.086-8.855v16.314c0 4.767-3.103 8.125-8.382 9.05-4.414.771-7.517-.797-8.285-4.214l5.022-1.71c.321 1.415 1.537 2.066 3.263 1.764 1.92-.336 3.072-1.72 3.072-3.704v-6.335l-.064.012c0 3.806-2.079 6.41-5.63 7.031-3.872.677-6.206-1.985-6.206-7.232 0-5.214 2.334-8.693 6.206-9.37 3.551-.622 5.63 1.253 5.63 5.06l.064-.01v-5.727l5.31-.929zM0 93.462l3.902-.683v4.134L0 97.596z"/>
    </g>
</svg>
